<?xml version="1.0" encoding="utf-8"?>
<!-- Generator: Adobe Illustrator 24.3.0, SVG Export Plug-In . SVG Version: 6.00 Build 0)  -->
<svg version="1.1" id="Layer_1" xmlns="http://www.w3.org/2000/svg" xmlns:xlink="http://www.w3.org/1999/xlink" x="0px" y="0px"
	 viewBox="0 0 1000 1000" style="enable-background:new 0 0 1000 1000;" xml:space="preserve">
<style type="text/css">
	.st0{fill:#FFFFFF;}
	.st1{fill:#B1A5AC;}
	.st2{fill:#58595B;}
	.st3{fill:#E9B5A5;}
	.st4{fill:#F1E5DC;}
</style>
<path class="st0" d="M451.3,826.4l-0.07-0.28h-14.59c0,0,0.05-0.17,0.12-0.39c0.01-0.03,0.02-0.08,0.03-0.11
	c0.64-2.16,3.17-11.41,4.14-25.08h0.01c0.43-6.07,0.57-12.99,0.08-20.58l-9.77-44.11c-1.67-4.29-3.62-8.64-5.83-13.01
	c-21.13,54.07-59.61,103.28-59.61,103.28h-82.86c0,0,4.46-10.52,10.68-25.57h0.01c12.19-29.48,31.14-76.42,36.67-96.2
	c2.77-9.92,14.97-32.59,6.77-66.79c-66.82-48.79-79.89-92.01-101.63-135.61c-14.47,4.45-30.73,7.01-48,7.01
	c-59.5,0-107.75-29.7-107.75-66.34c0-7.23,1.94-14.17,5.41-20.69c-0.03-1.22-0.04-2.43-0.04-3.62c0-22.06-13.97-56.28-24.61-79.13
	c-4.87-7.35-8.73-15.22-11.6-23.43c-0.07-0.12-0.21-0.39-0.21-0.39h0.08c-3.52-10.2-5.53-20.92-5.53-32.04
	c0-16.76,4.38-32.68,12.1-47.07c-20.08-8.86-42.26-27.62-51.05-67.24c0,0,33.47,0,60.07,7.87c8.61,2.55,16.88,4.06,24.15,4.96
	c-2.68-15.79-4.98-33.88-1.98-36.87c3.25-3.26,27.31,22.84,36.81,33.42c18.53-7.41,39.24-11.67,61.2-11.67
	c4.05,0,8.03,0.19,11.99,0.47v0c0.03,0,0.06,0.01,0.09,0.01c10.43,0.74,20.52,2.45,30.17,4.97c0.57,0.15,1.14,0.29,1.7,0.44
	c4.44,1.21,8.78,2.59,13.02,4.15c0.71,0.26,1.39,0.54,2.09,0.81c0.71,0.27,1.43,0.54,2.14,0.82c9.5-10.57,33.56-36.68,36.83-33.42
	c2.99,2.99,0.69,21.09-1.99,36.87c7.28-0.89,15.55-2.4,24.15-4.96c26.59-7.87,60.07-7.87,60.07-7.87
	c-8.07,36.33-27.37,55.09-46.01,64.79c13.92,9.41,38.66,21.19,78.37,25.09l0,0c2.9,0.29,5.88,0.52,8.94,0.72
	c0.1,0,0.19,0.01,0.28,0.02c2.9,0.18,5.89,0.32,8.95,0.41c0.27,0.01,0.53,0.03,0.81,0.03c2.86,0.08,5.8,0.11,8.78,0.11
	c0.51,0,0.98,0.02,1.49,0.01c2.78-0.01,5.65-0.08,8.54-0.17c0.76-0.02,1.48-0.02,2.25-0.05c2.73-0.1,5.55-0.26,8.38-0.43
	c0.98-0.06,1.92-0.09,2.91-0.16c2.7-0.18,5.5-0.44,8.29-0.68c1.19-0.11,2.33-0.18,3.54-0.3c2.91-0.29,5.93-0.65,8.94-1.01
	c1.14-0.14,2.23-0.24,3.38-0.39c4.2-0.54,8.5-1.15,12.89-1.84c4.13-0.65,8.35-1.27,12.65-1.86c1.44-0.2,2.93-0.38,4.39-0.57
	c2.87-0.38,5.74-0.76,8.68-1.11c1.89-0.23,3.81-0.44,5.72-0.66c2.54-0.29,5.08-0.57,7.67-0.84c2.22-0.23,4.46-0.44,6.71-0.66
	c2.28-0.22,4.57-0.43,6.88-0.63c2.56-0.22,5.13-0.43,7.72-0.63c1.97-0.15,3.95-0.3,5.95-0.43c2.91-0.2,5.84-0.39,8.79-0.56
	c1.6-0.09,3.21-0.18,4.82-0.26c3.34-0.18,6.68-0.34,10.05-0.47c1.01-0.04,2.03-0.07,3.04-0.11c31.78-1.14,64.82-0.39,96.95,3.08
	c0.09,0.01,0.18,0.02,0.27,0.03c4.6,0.5,9.18,1.05,13.73,1.67c0.14,0.02,0.28,0.04,0.42,0.06c4.57,0.62,9.11,1.29,13.63,2.03
	c0,0,0.01,0,0.01,0l0,0c22.69,3.72,44.52,8.98,64.66,16.12l0,0c0.01,0,0.02,0.01,0.03,0.01c38,13.47,69.95,33.57,90.15,62.46
	c4.87-1.28,11.21-1.4,17.93,1.39c19.1,7.96,33.75,34.8,44.75,82.06c12.24,52.52,22.23,83.27,28.89,88.9
	c0.66,0.55,1.24,1.06,1.76,1.58c0.32,0.32,0.57,0.69,0.85,1.05c10.52,5.68,23.13,7.07,34.7,21.29c22.86,28.09-8.15,46.92-5.74,79.93
	c-24.35-39.32-61.08-38.36-51.42-89.95c-6.47-7.8-16-27.29-32.32-97.38c-8.92-38.33-18.56-54.29-24.86-60.97
	c3.71,9.94,6.43,20.57,7.74,32.15c1.14,10.13,2.14,19.93,3.03,29.43c0,0,0,0,0,0c0.03,0.34,0.05,0.65,0.09,0.99
	c0.51,5.45,0.96,10.78,1.39,16.03c0.07,0.89,0.14,1.78,0.22,2.67c0.91,11.42,1.64,22.34,2.23,32.75c0.02,0.28,0.03,0.56,0.05,0.84
	c5.55,99.54-2.18,153.01,3.34,158.53c6.9,6.9,26.41,8.04,16.08,33.31c-7.66,18.73-32.95,97.28-45.56,136.79
	c-4.4,13.8-7.28,22.9-7.28,22.9h-80.74l21.7-98.91c-45.17,47.65-124.16,80.44-124.16,80.44l-72.17-40.73c0,0,0.15-0.11,0.24-0.19
	c0.76-0.59,3.28-2.53,7.08-5.47c0.11-0.09,0.23-0.18,0.34-0.27c13.44-10.43,42.03-32.79,65.06-51.91c-1.57-6-1.1-14.7,1.35-21.95
	c-2.37-1.01-4.68-2.06-6.92-3.18c-2.53,4.36-5.82,8.16-9.19,10.38c-5.15,3.37-10.46,3.12-13.54-4.24
	c-1.86-4.47-0.99-12.41,1.72-19.48c-7.36-5.9-13.64-12.45-19.03-19.32c-1.63-0.04-3.3-0.1-4.9-0.12c-0.75-0.01-1.5-0.02-2.24-0.03
	c-2.72-0.03-5.36-0.04-7.95-0.03c-1.04,0.01-2.1,0.01-3.12,0.02c-2.4,0.03-4.71,0.11-6.98,0.2c-0.94,0.03-1.92,0.06-2.84,0.1
	c-3.08,0.16-6.05,0.36-8.84,0.65c-20.58,2.13-43.07,4.12-66.29,5.09l-3.65,168.94L451.3,826.4z"/>
<path class="st1" d="M599.13,766.74c0.61-0.47,3.14-2.42,7.08-5.47C602.42,764.2,599.89,766.15,599.13,766.74z"/>
<path class="st1" d="M808.63,657.52c-9.88,11.99-21.35,21.98-33.62,29.06c2.95,8.12,3.11,18.46,0.4,25.16
	c-2.48,6.18-7.38,9.26-14.67,4.6c-4.67-2.97-9.03-11.25-10.85-19.68c-4.32,0.98-8.66,1.54-12.98,1.72
	c-0.39,6.79-2.42,13.64-5.57,18.1c-3.84,5.44-9.3,7.31-15.33,1.09c-3.7-3.81-5.99-12.31-6.01-20.6c-3.92-0.51-7.74-1.14-11.41-1.89
	c-1.35,7.85-5.33,15.91-10.12,20.32c-4.9,4.51-10.64,5.19-15.22-2.16c-0.7-1.12-1.23-2.56-1.64-4.14
	c-23.03,19.12-51.62,41.48-65.06,51.91c3.73-2.9,8.57-6.66,14.21-11.09l78.62,44.36c-16.76,8.56-28.33,13.38-28.33,13.38
	s78.99-32.79,124.16-80.44l14.18-64.65C809.78,660.84,809.47,659.16,808.63,657.52z"/>
<path class="st2" d="M620.76,749.91c-5.64,4.42-10.48,8.19-14.21,11.09c-0.12,0.09-0.23,0.18-0.34,0.27c-3.94,3.06-6.46,5-7.08,5.47
	c-0.09,0.08-0.24,0.19-0.24,0.19l72.17,40.73c0,0,11.56-4.82,28.33-13.38L620.76,749.91z"/>
<path class="st1" d="M358.82,652.4c-7.84-5.01-15.04-9.95-21.73-14.84c8.19,34.2-4,56.87-6.77,66.79
	c-5.53,19.77-24.49,66.71-36.67,96.2h90.27c-10.39,15.71-18.1,25.57-18.1,25.57s38.47-49.21,59.61-103.28
	C413.39,698.97,392.95,674.21,358.82,652.4z"/>
<path class="st3" d="M688.47,715.39c4.79-4.41,8.77-12.47,10.12-20.32c3.68,0.74,7.49,1.38,11.41,1.89
	c0.03,8.3,2.31,16.79,6.01,20.6c6.03,6.22,11.49,4.35,15.33-1.09c3.15-4.46,5.19-11.31,5.57-18.1c4.32-0.18,8.66-0.74,12.98-1.72
	c1.82,8.44,6.18,16.71,10.85,19.68c7.29,4.67,12.19,1.58,14.67-4.6c2.71-6.7,2.55-17.04-0.4-25.16
	c12.26-7.08,23.74-17.07,33.62-29.06c-2.27-4.45-8.78-8.62-18.6-12.49c-48.89,14.06-114.86,7.49-164.05,6.27
	c5.4,6.87,11.67,13.42,19.03,19.32c-2.71,7.06-3.58,15-1.72,19.48c3.08,7.36,8.4,7.61,13.54,4.24c3.37-2.22,6.66-6.02,9.19-10.38
	c2.24,1.11,4.56,2.17,6.92,3.18c-2.45,7.25-2.92,15.95-1.35,21.95c0.41,1.58,0.94,3.02,1.64,4.14
	C677.83,720.58,683.57,719.9,688.47,715.39z"/>
<path class="st4" d="M597.96,651.43c-3.08,0.16-6.05,0.36-8.84,0.65C591.91,651.8,594.88,651.59,597.96,651.43z"/>
<path class="st4" d="M689.92,251.2c4.57,0.62,9.12,1.29,13.63,2.03C699.03,252.49,694.48,251.82,689.92,251.2z"/>
<path class="st4" d="M511.21,251.62c1.89-0.23,3.81-0.44,5.72-0.66C515.02,251.18,513.09,251.39,511.21,251.62z"/>
<path class="st4" d="M469.22,257.39c1.14-0.14,2.23-0.24,3.38-0.39C471.45,257.16,470.36,257.26,469.22,257.39z"/>
<path class="st4" d="M498.14,253.31c1.44-0.2,2.93-0.38,4.39-0.57C501.07,252.92,499.59,253.11,498.14,253.31z"/>
<path class="st4" d="M524.59,250.12c2.22-0.23,4.46-0.44,6.71-0.66C529.06,249.67,526.81,249.89,524.59,250.12z"/>
<path class="st4" d="M675.76,249.47c4.6,0.5,9.18,1.05,13.73,1.67C684.94,250.53,680.37,249.97,675.76,249.47z"/>
<path class="st4" d="M607.77,651.13c-2.4,0.03-4.71,0.11-6.98,0.2C603.06,651.24,605.37,651.16,607.77,651.13z"/>
<path class="st4" d="M565.45,246.94c3.33-0.17,6.68-0.34,10.05-0.47C572.13,246.61,568.79,246.77,565.45,246.94z"/>
<path class="st4" d="M610.89,651.11c2.59-0.01,5.23-0.01,7.95,0.03C616.13,651.1,613.48,651.1,610.89,651.11z"/>
<path class="st4" d="M858.12,331.89c0.09-0.02,0.19-0.05,0.28-0.07c-20.2-28.89-52.15-48.99-90.15-62.46
	C806.21,282.82,837.92,303.05,858.12,331.89z"/>
<path class="st4" d="M538.18,248.83c2.56-0.22,5.13-0.43,7.72-0.63C543.31,248.4,540.74,248.61,538.18,248.83z"/>
<path class="st4" d="M551.84,247.77c2.91-0.2,5.84-0.39,8.79-0.56C557.68,247.38,554.76,247.57,551.84,247.77z"/>
<path class="st4" d="M675.49,249.45c-32.13-3.47-65.17-4.22-96.95-3.08C610.31,245.24,643.37,245.98,675.49,249.45z"/>
<path class="st4" d="M436.76,825.73c0.01-0.05,0.02-0.05,0.03-0.11C436.78,825.66,436.77,825.7,436.76,825.73z"/>
<path class="st4" d="M434.91,260.03c0.76-0.02,1.48-0.02,2.25-0.05C436.4,260.01,435.67,260.01,434.91,260.03z"/>
<path class="st4" d="M883.8,422.3c0.5,5.45,0.96,10.79,1.39,16.03C884.76,433.08,884.31,427.75,883.8,422.3z"/>
<path class="st4" d="M445.54,259.55c0.98-0.06,1.92-0.09,2.91-0.16C447.46,259.46,446.52,259.49,445.54,259.55z"/>
<path class="st4" d="M885.41,441c0.91,11.41,1.64,22.35,2.23,32.75C887.05,463.34,886.32,452.41,885.41,441z"/>
<path class="st4" d="M456.74,258.71c1.19-0.11,2.33-0.18,3.54-0.3C459.07,258.52,457.93,258.6,456.74,258.71z"/>
<path class="st4" d="M519.19,826.12l3.65-168.94c23.22-0.98,45.71-2.96,66.29-5.09c-3.33,0.34-6.77,0.67-10.19,1
	c5.18-10.71,12.14-21.91,13.1-33.36c1.91-22.42-15.28-50.22-7.71-71.55c6.1-17.22,20.88-22.06,39.16-20.22
	c39.5,4.01,95.39,39.27,115.44,48.27c15.32,24.8,32.46,48.16,22.17,74.6c-45.83,6.15-99.35,1.03-140.02,0.34
	c1.6,0.03,3.27,0.08,4.9,0.12c49.19,1.22,115.16,7.79,164.05-6.27c9.82,3.87,16.32,8.04,18.6,12.49c0.84,1.64,1.14,3.32,0.77,5.04
	l-14.18,64.65l-21.7,98.91l5.62-25.57h83.26c-0.3,0.93-0.56,1.78-0.85,2.67c12.61-39.5,37.9-118.06,45.56-136.79
	c10.34-25.27-9.18-26.41-16.08-33.31c-5.52-5.52,2.21-58.99-3.34-158.53c1.5,27.02,2.04,50.64,2.11,70.84
	c-1.67,0.59-3.45,1.1-5.48,1.45c-15.55,2.63-34.52-10.09-37.38-24.72c-3.08-15.75,14.29-14.75-2.49-29.3
	c-11.93-10.35-39.9-1.05-37.44-25c1.95-18.99,29.41-18.83,42.05-22.26c17.09-4.64,28.64-11.53,34.65-24.29
	c-0.88-9.5-1.88-19.3-3.03-29.43c-1.3-11.58-4.03-22.21-7.74-32.15c-2.59-2.75-4.64-3.96-5.81-4.45c-1.27-0.52-2.08-0.5-2.45-0.43
	c-0.03,0-0.03,0-0.03,0c-5.45,2.88-12.23,1.12-15.61-4.1c-15.4,15.72-33.36,28.14-46.61,47.45c-13.23,19.31-39.19,69.48-67.07,37.6
	c-23.58-26.96,17.26-58.25,27.91-78.35c13.67-25.77,1.16-63.05,4.93-88.12c-20.15-7.14-41.97-12.4-64.66-16.12
	c-3.23,10.14-13.46,21.98-33.38,35.44c-29.06,19.61-66.41,18.54-91.21,46.59c-12.73,14.4-13.2,33.12-21.5,47.17
	c-16.87,28.59-45.99,38.8-83.25,31.29c-37.64-7.61-63.6-28.33-66.49-67.76c-1.57-21.39,5.18-42.17,0.04-63.42
	c-2.15-8.89-6.76-16.13-10.64-23.65c-39.71-3.9-64.45-15.67-78.37-25.09c-1.69,0.88-3.37,1.71-5.03,2.44
	c7.72,14.4,12.08,30.31,12.08,47.07c0,11.12-2.01,21.84-5.53,32.04h0.08c0,0-0.14,0.25-0.19,0.37c-2.89,8.22-6.74,16.09-11.62,23.45
	c-5.6,12.02-12.07,27.17-16.99,42.06c-3.81,11.53-6.57,22.78-7.29,32.39c6.93,8.76,10.93,18.57,10.93,28.97
	c0,26.01-24.36,48.46-59.75,59.33c21.75,43.6,34.82,86.82,101.63,135.61c6.7,4.89,13.89,9.83,21.73,14.84
	c34.13,21.81,54.57,46.56,66.6,70.44c2.21,4.38,4.16,8.72,5.83,13.01l9.77,44.11c0.49,7.59,0.36,14.51-0.08,20.58h78.79
	L519.19,826.12z M499.42,484.62c-2.27,21.05-21.62,16.61-32.32,26.87c-8.97,8.62-13.14,28.48-27.24,31.4
	c-27.07,5.62-21.1-19.57-32.21-31.96c-9.15-10.23-32.41-19.38-35.21-33.78c-7.78-39.96,56.82-32.51,74.02-24.24l15.86,5.29
	C479.61,450.13,501.62,464.06,499.42,484.62z"/>
<path class="st4" d="M415.29,260.04c0.27,0.01,0.53,0.02,0.81,0.03C415.82,260.07,415.56,260.05,415.29,260.04z"/>
<path class="st4" d="M426.37,260.2c-0.51,0-0.99-0.01-1.49-0.01C425.39,260.19,425.86,260.21,426.37,260.2z"/>
<path class="st4" d="M406.06,259.61c0.1,0,0.19,0.01,0.28,0.02C406.25,259.62,406.16,259.61,406.06,259.61z"/>
<path class="st4" d="M245.71,178.38c-0.71-0.28-1.42-0.55-2.14-0.82c0.71,0.27,1.37,0.61,2.08,0.89
	C245.67,178.42,245.7,178.4,245.71,178.38z"/>
<path class="st4" d="M228.47,172.6c4.44,1.21,8.78,2.59,13.02,4.15C237.25,175.2,232.91,173.82,228.47,172.6z"/>
<path class="st4" d="M196.59,167.19c10.43,0.74,20.52,2.46,30.17,4.97C217.11,169.63,207.03,167.93,196.59,167.19z"/>
<path class="st4" d="M187.46,376.27c42.62,0,79.34,15.27,96.82,37.37c0.72-9.61,3.48-20.86,7.29-32.39
	c-0.01,0.02-0.01,0.04-0.02,0.05c-22.23,3.33-46.29-4.28-70.97-21.32c-38-26.25-25.79-49.69-15.91-90.75
	c7.39-30.69-6.29-59.61-8.02-89.85c-0.28-4.58-0.29-8.56-0.14-12.21c-3.96-0.28-7.94-0.47-11.99-0.47
	c-21.96,0-42.68,4.26-61.2,11.67c2.37,2.64,3.87,4.35,3.87,4.35l-34,23.63c0,0-2.49-11.48-4.71-24.53
	c-7.27-0.89-15.55-2.4-24.15-4.96c-26.59-7.87-60.07-7.87-60.07-7.87c8.8,39.61,30.97,58.37,51.05,67.24
	c-7.72,14.4-12.1,30.31-12.1,47.07c0,11.12,2.01,21.84,5.53,32.04h-0.08c0,0,0.14,0.26,0.21,0.39c2.88,8.2,6.73,16.08,11.6,23.43
	c10.64,22.85,24.61,57.07,24.61,79.13c0,1.19,0.02,2.4,0.04,3.62C99.25,395.42,139.69,376.27,187.46,376.27z M110.14,290.93
	c9.61-0.04,17.47,13.94,17.54,31.29c0.1,17.32-7.64,31.37-17.23,31.42c-9.62,0.04-17.51-13.93-17.58-31.26
	C92.77,305.05,100.54,290.97,110.14,290.93z"/>
<path class="st2" d="M951.74,522.66c-2.33,2.34-5.38,3.51-8.45,3.51c-3.06,0-6.11-1.17-8.45-3.51l-0.28-0.23
	c-1.32-1.11-2.77-2.35-4.43-4.35c-9.67,51.58,27.07,50.62,51.42,89.95c-2.41-33.01,28.6-51.84,5.74-79.93
	c-11.57-14.22-24.18-15.62-34.7-21.29C956.33,511.5,956.08,518.32,951.74,522.66z"/>
<path class="st4" d="M861.29,336.31c-0.83,1.16-1.53,2.3-2.44,3.45c-3.07,3.92-6.39,7.51-9.8,10.99c3.38,5.22,10.16,6.98,15.61,4.1
	c0,0,0,0,0.03,0c0.37-0.07,1.18-0.1,2.45,0.43c1.17,0.49,3.21,1.7,5.81,4.45c6.3,6.68,15.94,22.64,24.86,60.97
	c16.32,70.09,25.85,89.59,32.32,97.38c1.65,1.99,3.11,3.23,4.43,4.35l0.28,0.23c2.34,2.34,5.4,3.51,8.45,3.51
	c3.07,0,6.13-1.17,8.45-3.51c4.34-4.34,4.59-11.17,0.85-15.86c-0.28-0.35-0.53-0.72-0.85-1.05c-0.52-0.52-1.1-1.03-1.76-1.58
	c-6.66-5.63-16.65-36.38-28.89-88.9c-11-47.27-25.64-74.11-44.75-82.06c-6.72-2.79-13.06-2.68-17.93-1.39
	c-0.09,0.02-0.19,0.05-0.28,0.07C859.16,333.38,860.31,334.78,861.29,336.31z"/>
<path class="st3" d="M295.2,442.61c0-10.4-4-20.21-10.93-28.97c-17.48-22.1-54.2-37.37-96.82-37.37
	c-47.76,0-88.2,19.16-102.33,45.66c-3.47,6.52-5.41,13.46-5.41,20.69c0,36.64,48.24,66.34,107.75,66.34c17.27,0,33.53-2.56,48-7.01
	C270.84,491.07,295.2,468.62,295.2,442.61z M250.62,453.87c-1.94,6.7-13.31,16.46-18.97,18.51c-24.29,8.82-7.96-24.34,9.7-24.98
	C249.66,447.08,251.75,449.96,250.62,453.87z M127.67,447.4c17.66,0.65,34,33.8,9.7,24.98c-5.66-2.05-17.03-11.81-18.97-18.51
	C117.27,449.96,119.37,447.08,127.67,447.4z"/>
<path class="st2" d="M137.37,472.38c24.29,8.82,7.96-24.34-9.7-24.98c-8.3-0.32-10.39,2.56-9.26,6.47
	C120.34,460.57,131.71,470.33,137.37,472.38z"/>
<path class="st2" d="M231.65,472.38c5.66-2.05,17.03-11.81,18.97-18.51c1.13-3.91-0.96-6.79-9.26-6.47
	C223.7,448.05,207.36,481.21,231.65,472.38z"/>
<path class="st1" d="M196.64,179.39c1.73,30.24,15.42,59.16,8.02,89.85c-9.88,41.06-22.09,64.5,15.91,90.75
	c24.68,17.04,48.74,24.65,70.97,21.32c0.01-0.02,0.01-0.04,0.02-0.05c4.92-14.89,11.4-30.05,16.99-42.06
	c4.87-7.36,8.73-15.24,11.62-23.45c0.05-0.12,0.19-0.37,0.19-0.37h-0.08c3.52-10.2,5.53-20.92,5.53-32.04
	c0-16.76-4.36-32.68-12.08-47.07c1.67-0.74,3.34-1.57,5.03-2.44c18.64-9.7,37.94-28.47,46.01-64.79c0,0-33.47,0-60.07,7.87
	c-8.61,2.55-16.87,4.06-24.15,4.96c-2.22,13.05-4.71,24.53-4.71,24.53l-34-23.63c0,0,1.48-1.68,3.82-4.29
	c-0.71-0.28-1.37-0.62-2.08-0.89c-0.7-0.27-1.39-0.55-2.09-0.81c-4.24-1.55-8.58-2.94-13.02-4.15c-0.56-0.15-1.13-0.3-1.7-0.44
	c-9.66-2.51-19.74-4.23-30.17-4.97c-0.03,0-0.06-0.01-0.09-0.01v0C196.35,170.83,196.36,174.8,196.64,179.39z M258.89,290.93
	c9.59,0.04,17.36,14.12,17.27,31.45c-0.08,17.33-7.97,31.3-17.59,31.26c-9.59-0.05-17.33-14.11-17.23-31.42
	C241.43,304.87,249.27,290.89,258.89,290.93z"/>
<path class="st1" d="M407.72,345.96c2.89,39.43,28.85,60.15,66.49,67.76c37.26,7.52,66.37-2.7,83.25-31.29
	c8.3-14.05,8.77-32.77,21.5-47.17c24.8-28.05,62.16-26.98,91.21-46.59c19.92-13.46,30.14-25.3,33.38-35.44l0,0
	c-0.01,0-0.01,0-0.01,0c-4.51-0.74-9.06-1.41-13.63-2.03c-0.14-0.02-0.28-0.04-0.42-0.06c-4.55-0.61-9.13-1.17-13.73-1.67
	c-0.09-0.01-0.18-0.02-0.27-0.03c-32.12-3.47-65.18-4.21-96.95-3.08c-1.02,0.04-2.03,0.07-3.04,0.11c-3.37,0.13-6.71,0.3-10.05,0.47
	c-1.61,0.09-3.22,0.17-4.82,0.26c-2.95,0.17-5.87,0.36-8.79,0.56c-1.99,0.14-3.97,0.28-5.95,0.43c-2.58,0.2-5.16,0.41-7.72,0.63
	c-2.31,0.2-4.59,0.41-6.88,0.63c-2.25,0.21-4.49,0.43-6.71,0.66c-2.58,0.27-5.12,0.55-7.67,0.84c-1.91,0.22-3.83,0.43-5.72,0.66
	c-2.94,0.35-5.81,0.73-8.68,1.11c-1.46,0.19-2.95,0.37-4.39,0.57c-4.3,0.6-8.52,1.22-12.65,1.86c-4.39,0.69-8.69,1.3-12.89,1.84
	c-1.15,0.15-2.24,0.25-3.38,0.39c-3.01,0.36-6.03,0.72-8.94,1.01c-1.2,0.12-2.35,0.19-3.54,0.3c-2.79,0.25-5.59,0.5-8.29,0.68
	c-0.99,0.07-1.93,0.1-2.91,0.16c-2.83,0.17-5.65,0.33-8.38,0.43c-0.76,0.03-1.49,0.03-2.25,0.05c-2.89,0.09-5.76,0.16-8.54,0.17
	c-0.51,0-0.99-0.01-1.49-0.01c-2.98,0-5.93-0.03-8.78-0.11c-0.28-0.01-0.54-0.03-0.81-0.03c-3.05-0.1-6.04-0.23-8.95-0.41
	c-0.1-0.01-0.19-0.02-0.28-0.02c-3.06-0.2-6.04-0.44-8.94-0.72l0,0c3.88,7.52,8.49,14.76,10.64,23.65
	C412.9,303.79,406.15,324.57,407.72,345.96z"/>
<path class="st1" d="M462.33,458.19l-15.86-5.29c-17.21-8.27-81.8-15.72-74.02,24.24c2.79,14.4,26.06,23.55,35.21,33.78
	c11.11,12.39,5.13,37.58,32.21,31.96c14.09-2.92,18.26-22.78,27.24-31.4c10.69-10.25,30.05-5.82,32.32-26.87
	C501.62,464.06,479.61,450.13,462.33,458.19z"/>
<path class="st1" d="M763.29,357.47c-10.65,20.1-51.49,51.38-27.91,78.35c27.89,31.88,53.85-18.29,67.07-37.6
	c13.24-19.32,31.21-31.73,46.61-47.45c3.41-3.48,6.73-7.06,9.8-10.99c0.91-1.16,1.61-2.3,2.44-3.45c-0.98-1.53-2.13-2.93-3.17-4.42
	c-20.2-28.84-51.91-49.08-89.87-62.53c-0.01,0-0.02-0.01-0.03-0.01l0,0C764.45,294.42,776.96,331.7,763.29,357.47z"/>
<path class="st1" d="M849.06,445.6c-12.64,3.43-40.09,3.26-42.05,22.26c-2.46,23.95,25.51,14.65,37.44,25
	c16.78,14.55-0.59,13.56,2.49,29.3c2.86,14.63,21.83,27.35,37.38,24.72c2.02-0.34,3.81-0.85,5.48-1.45
	c-0.08-20.19-0.61-43.82-2.11-70.84c-0.02-0.28-0.03-0.56-0.05-0.84c-0.59-10.41-1.32-21.34-2.23-32.75
	c-0.07-0.89-0.14-1.78-0.22-2.67c-0.43-5.24-0.89-10.58-1.39-16.03c-0.03-0.34-0.05-0.65-0.09-0.99c0,0,0,0,0,0
	C877.7,434.06,866.15,440.96,849.06,445.6z"/>
<path class="st1" d="M761.1,650.83c10.28-26.44-6.85-49.8-22.17-74.6c-20.05-9-75.94-44.27-115.44-48.27
	c-18.28-1.84-33.06,3-39.16,20.22c-7.57,21.32,9.62,49.12,7.71,71.55c-0.96,11.45-7.93,22.66-13.1,33.36
	c3.41-0.33,6.85-0.66,10.19-1c2.79-0.29,5.76-0.5,8.84-0.65c0.92-0.05,1.9-0.07,2.84-0.1c2.27-0.09,4.58-0.17,6.98-0.2
	c1.02-0.01,2.08-0.01,3.12-0.02c2.59-0.01,5.24-0.01,7.95,0.03c0.75,0.01,1.49,0.02,2.24,0.03
	C661.76,651.87,715.28,656.99,761.1,650.83z"/>
<path class="st2" d="M110.45,353.64c9.59-0.05,17.33-14.11,17.23-31.42c-0.07-17.34-7.93-31.33-17.54-31.29
	c-9.61,0.04-17.37,14.12-17.27,31.45C92.94,339.71,100.83,353.68,110.45,353.64z"/>
<path class="st2" d="M258.58,353.64c9.62,0.04,17.51-13.93,17.59-31.26c0.08-17.33-7.68-31.41-17.27-31.45
	c-9.62-0.04-17.47,13.94-17.55,31.29C241.25,339.53,248.98,353.59,258.58,353.64z"/>
<path class="st2" d="M127.18,182.73c0,0-1.5-1.71-3.87-4.35c-9.5-10.58-33.56-36.68-36.81-33.42c-3,2.99-0.71,21.09,1.98,36.87
	c2.22,13.05,4.71,24.53,4.71,24.53L127.18,182.73z"/>
<path class="st2" d="M241.84,182.73l34,23.63c0,0,2.49-11.48,4.71-24.53c2.69-15.79,4.98-33.88,1.99-36.87
	c-3.26-3.26-27.33,22.84-36.83,33.42c-0.02,0.02-0.04,0.04-0.06,0.07C243.31,181.05,241.84,182.73,241.84,182.73z"/>
<path class="st2" d="M293.64,800.55L293.64,800.55c-6.23,15.06-10.69,25.57-10.69,25.57h82.86c0,0,7.71-9.87,18.1-25.57H293.64z"/>
<path class="st2" d="M779.13,800.55l-5.62,25.57h80.74c0,0,2.89-9.1,7.28-22.9c0.29-0.9,0.55-1.74,0.85-2.67H779.13z"/>
<path class="st2" d="M519.74,800.55h-78.79h-0.01c-0.97,13.67-3.51,22.92-4.14,25.08c-0.02,0.06-0.02,0.06-0.03,0.11
	c-0.07,0.21-0.12,0.39-0.12,0.39h14.59l0.07,0.28l67.88-0.28L519.74,800.55z"/>
</svg>
